<svg width="182" height="158" viewBox="0 0 182 158" fill="none" xmlns="http://www.w3.org/2000/svg">
<path d="M35.5983 59.0581H80.9519L82.1499 62.5118H33.8868L35.5983 59.0581ZM120.315 107.928C120.772 107.928 121 108.273 121 108.964C121 109.655 120.772 110 120.315 110C118.148 110 114.782 109.885 110.218 109.655C105.654 109.424 102.345 109.309 100.291 109.309C97.7812 109.309 94.5865 109.424 90.7072 109.655C87.0561 109.885 84.2607 110 82.3211 110C81.8647 110 81.6365 109.655 81.6365 108.964C81.6365 108.273 81.8647 107.928 82.3211 107.928C86.6568 107.928 89.7374 107.525 91.5629 106.719C93.5026 105.913 94.4724 104.474 94.4724 102.402C94.4724 100.675 93.7878 98.2575 92.4187 95.1491L54.4243 14.1601L58.703 8.80691L25.5007 88.0691C23.9033 91.9833 23.1047 95.2067 23.1047 97.7394C23.1047 104.532 28.6954 107.928 39.8769 107.928C40.4474 107.928 40.7327 108.273 40.7327 108.964C40.7327 109.655 40.4474 110 39.8769 110C37.8232 110 34.8567 109.885 30.9774 109.655C26.6417 109.424 22.8765 109.309 19.6818 109.309C16.7152 109.309 13.2923 109.424 9.41301 109.655C5.9901 109.885 3.13767 110 0.855728 110C0.285243 110 0 109.655 0 108.964C0 108.273 0.285243 107.928 0.855728 107.928C4.05045 107.928 6.73173 107.352 8.89958 106.201C11.1815 104.935 13.2923 102.805 15.232 99.8116C17.2857 96.7033 19.5106 92.2711 21.9066 86.5149L58.0184 0.518057C58.2466 0.172686 58.6459 0 59.2164 0C59.7869 0 60.1292 0.172686 60.2433 0.518057L100.634 86.3422C104.513 94.8613 107.822 100.617 110.56 103.611C113.298 106.489 116.55 107.928 120.315 107.928Z" fill="#0C0C0C"/>
<path d="M95.8925 107.058H141.621L142.829 110.512H94.1669L95.8925 107.058ZM181.31 155.928C181.77 155.928 182 156.273 182 156.964C182 157.655 181.77 158 181.31 158C179.124 158 175.73 157.885 171.129 157.655C166.527 157.424 163.191 157.309 161.12 157.309C158.589 157.309 155.368 157.424 151.457 157.655C147.776 157.885 144.957 158 143.001 158C142.541 158 142.311 157.655 142.311 156.964C142.311 156.273 142.541 155.928 143.001 155.928C147.373 155.928 150.479 155.525 152.32 154.719C154.275 153.913 155.253 152.474 155.253 150.402C155.253 148.675 154.563 146.257 153.182 143.149L114.874 62.1601L119.188 56.8069L85.7115 136.069C84.1009 139.983 83.2956 143.207 83.2956 145.739C83.2956 152.532 88.9326 155.928 100.207 155.928C100.782 155.928 101.069 156.273 101.069 156.964C101.069 157.655 100.782 158 100.207 158C98.1358 158 95.1447 157.885 91.2334 157.655C86.8619 157.424 83.0655 157.309 79.8444 157.309C76.8534 157.309 73.4022 157.424 69.4908 157.655C66.0396 157.885 63.1636 158 60.8628 158C60.2876 158 60 157.655 60 156.964C60 156.273 60.2876 155.928 60.8628 155.928C64.0839 155.928 66.7874 155.352 68.9731 154.201C71.2739 152.935 73.4022 150.805 75.3578 147.812C77.4286 144.703 79.6719 140.271 82.0877 134.515L118.498 48.5181C118.728 48.1727 119.131 48 119.706 48C120.281 48 120.626 48.1727 120.741 48.5181L161.465 134.342C165.377 142.861 168.713 148.617 171.474 151.611C174.235 154.489 177.513 155.928 181.31 155.928Z" fill="#0C0C0C"/>
</svg>
