<svg width="210" height="111" viewBox="0 0 210 111" fill="none" xmlns="http://www.w3.org/2000/svg">
<path d="M36.5343 59.8661H81.8879L83.086 63.3198H34.8229L36.5343 59.8661ZM121.251 108.736C121.708 108.736 121.936 109.081 121.936 109.772C121.936 110.463 121.708 110.808 121.251 110.808C119.084 110.808 115.718 110.693 111.154 110.463C106.59 110.232 103.281 110.117 101.227 110.117C98.7173 110.117 95.5225 110.232 91.6432 110.463C87.9921 110.693 85.1968 110.808 83.2571 110.808C82.8007 110.808 82.5725 110.463 82.5725 109.772C82.5725 109.081 82.8007 108.736 83.2571 108.736C87.5928 108.736 90.6734 108.333 92.499 107.527C94.4386 106.721 95.4085 105.282 95.4085 103.21C95.4085 101.483 94.7239 99.0654 93.3547 95.9571L55.3604 14.9681L59.639 9.61489L26.4367 88.8771C24.8394 92.7912 24.0407 96.0147 24.0407 98.5474C24.0407 105.34 29.6315 108.736 40.813 108.736C41.3835 108.736 41.6687 109.081 41.6687 109.772C41.6687 110.463 41.3835 110.808 40.813 110.808C38.7592 110.808 35.7927 110.693 31.9134 110.463C27.5777 110.232 23.8125 110.117 20.6178 110.117C17.6513 110.117 14.2283 110.232 10.349 110.463C6.92613 110.693 4.07371 110.808 1.79176 110.808C1.22128 110.808 0.936035 110.463 0.936035 109.772C0.936035 109.081 1.22128 108.736 1.79176 108.736C4.98648 108.736 7.66777 108.16 9.83561 107.009C12.1176 105.743 14.2283 103.613 16.168 100.62C18.2217 97.5113 20.4466 93.079 22.8427 87.3229L58.9544 1.32604C59.1826 0.980669 59.582 0.807983 60.1524 0.807983C60.7229 0.807983 61.0652 0.980669 61.1793 1.32604L101.57 87.1502C105.449 95.6693 108.758 101.425 111.496 104.419C114.234 107.297 117.486 108.736 121.251 108.736Z" fill="white"/>
<path d="M123.893 60.0581H169.621L170.829 63.5118H122.167L123.893 60.0581ZM209.31 108.928C209.77 108.928 210 109.273 210 109.964C210 110.655 209.77 111 209.31 111C207.124 111 203.73 110.885 199.129 110.655C194.527 110.424 191.191 110.309 189.12 110.309C186.589 110.309 183.368 110.424 179.457 110.655C175.776 110.885 172.957 111 171.001 111C170.541 111 170.311 110.655 170.311 109.964C170.311 109.273 170.541 108.928 171.001 108.928C175.373 108.928 178.479 108.525 180.32 107.719C182.275 106.913 183.253 105.474 183.253 103.402C183.253 101.675 182.563 99.2575 181.182 96.1491L142.874 15.1601L147.188 9.80691L113.711 89.0691C112.101 92.9833 111.296 96.2067 111.296 98.7394C111.296 105.532 116.933 108.928 128.207 108.928C128.782 108.928 129.069 109.273 129.069 109.964C129.069 110.655 128.782 111 128.207 111C126.136 111 123.145 110.885 119.233 110.655C114.862 110.424 111.066 110.309 107.844 110.309C104.853 110.309 101.402 110.424 97.4908 110.655C94.0396 110.885 91.1636 111 88.8628 111C88.2876 111 88 110.655 88 109.964C88 109.273 88.2876 108.928 88.8628 108.928C92.0839 108.928 94.7874 108.352 96.9731 107.201C99.2739 105.935 101.402 103.805 103.358 100.812C105.429 97.7033 107.672 93.2711 110.088 87.5149L146.498 1.51806C146.728 1.17269 147.131 1 147.706 1C148.281 1 148.626 1.17269 148.741 1.51806L189.465 87.3422C193.377 95.8613 196.713 101.617 199.474 104.611C202.235 107.489 205.513 108.928 209.31 108.928Z" fill="white"/>
</svg>
